# xmcd CD database file
#
# Track frame offsets:
#	150
#	18885
#	32370
#	52891
#	72413
#	90222
#	116531
#	143749
#	162709
#	183188
#	197135
#
# Disc length: 2952 seconds
#
# Revision: 0
# Processed by: cddbd v1.5.1PL2 Copyright (c) Steve Scherf et al.
# Submitted via: CDex 1.40Release
#
DISCID=860b860b
DTITLE=Origa - illusia
DYEAR=1995
DGENRE=Pop
TTITLE0=01-風の中のソリテア
TTITLE1=02-アレルヤ
TTITLE2=03-あなたがいるから
TTITLE3=04-星降る夜
TTITLE4=05-ゆりかごの記憶〜父に捧ぐ〜
TTITLE5=06-雫のささやき〜The Whispers of Dew〜
TTITLE6=07-紅い花
TTITLE7=08-空の扉
TTITLE8=09-カピタン
TTITLE9=10-雲の住人
TTITLE10=11-ラ・ロンド・リュネール〜La Ronde Lunaire〜
EXTD=YEAR: 1995 ID3G: 13
EXTT0=
EXTT1=
EXTT2=
EXTT3=
EXTT4=
EXTT5=
EXTT6=
EXTT7=
EXTT8=
EXTT9=
EXTT10=
PLAYORDER=
